<svg id="ig_pfp_copy" data-name="ig pfp copy" xmlns="http://www.w3.org/2000/svg" viewBox="0 0 1084 1084"><defs><style>.cls-1{fill:#cad3eb;}</style></defs><path class="cls-1" d="M642,312.94a33.36,33.36,0,0,1-3.52,14.88L471.81,661.16A34.27,34.27,0,0,1,442,678.68a33.34,33.34,0,0,1-29.82-18.43L245.51,326.91a33.34,33.34,0,0,1,59.64-29.82L442,570.86,578.87,297.11A33.33,33.33,0,0,1,623.6,282.2C635.23,288.05,642,299.82,642,312.94Z"/><path class="cls-1" d="M842,312.94a33.36,33.36,0,0,1-3.52,14.88L671.81,661.16A34.27,34.27,0,0,1,642,678.68a33.34,33.34,0,0,1-29.82-18.43L445.51,326.91a33.34,33.34,0,0,1,59.64-29.82L642,570.86,778.87,297.11A33.33,33.33,0,0,1,823.6,282.2C835.23,288.05,842,299.82,842,312.94Z"/><path class="cls-1" d="M242,769.79c0-19.63,19.19-35.56,42.86-35.56H799.14c23.71,0,42.86,15.93,42.86,35.56s-19.15,35.56-42.86,35.56H284.86C261.19,805.35,242,789.46,242,769.79Z"/></svg>